<svg width="132" height="19" viewBox="0 0 132 19" fill="none" xmlns="http://www.w3.org/2000/svg">
<path d="M0.904297 19V0.845703H4.39551L10.5527 14.6201L16.583 0.845703H19.9473V19H16.8369V6.35547L11.9111 19H9.04199L4.01465 6.35547V19H0.904297Z" fill="#7795FF"/>
<path d="M23.1211 14.9756C23.1211 12.2419 24.9238 10.875 28.5293 10.875C29.6888 10.875 30.8483 10.9596 32.0078 11.1289V9.87207C32.0078 8.34017 30.8102 7.57422 28.415 7.57422C27.0439 7.57422 25.639 7.78581 24.2002 8.20898V6.30469C25.639 5.88151 27.0439 5.66992 28.415 5.66992C32.376 5.66992 34.3564 7.04948 34.3564 9.80859V19H33.0361L32.2236 17.6797C30.8949 18.5599 29.4476 19 27.8818 19C24.708 19 23.1211 17.6585 23.1211 14.9756ZM28.5293 12.7793C26.4896 12.7793 25.4697 13.4987 25.4697 14.9375C25.4697 16.3763 26.2738 17.0957 27.8818 17.0957C29.5068 17.0957 30.8822 16.6641 32.0078 15.8008V13.0332C30.8483 12.8639 29.6888 12.7793 28.5293 12.7793ZM38.1777 19V0.845703H40.5264V6.71094C41.8213 6.01693 43.3151 5.66992 45.0078 5.66992C48.3255 5.66992 49.9844 6.95215 49.9844 9.5166C49.9844 11.3786 48.7148 12.665 46.1758 13.376L50.4414 19H47.4707L43.2305 13.3506V12.2969C46.1673 12.0345 47.6357 11.1035 47.6357 9.50391C47.6357 8.21745 46.7048 7.57422 44.8428 7.57422C43.3786 7.57422 41.9398 7.97201 40.5264 8.76758V19H38.1777ZM58.6807 5.66992C62.4723 5.66992 64.3682 7.5446 64.3682 11.2939C64.3682 11.8271 64.3301 12.3984 64.2539 13.0078H54.8975C54.8975 15.7331 56.4886 17.0957 59.6709 17.0957C61.1859 17.0957 62.5316 16.9264 63.708 16.5879V18.4922C62.5316 18.8307 61.1012 19 59.417 19C54.8382 19 52.5488 16.7275 52.5488 12.1826C52.5488 7.84082 54.5928 5.66992 58.6807 5.66992ZM54.8975 11.0527H62.1084C62.0576 8.7168 60.915 7.54883 58.6807 7.54883C56.3109 7.54883 55.0498 8.7168 54.8975 11.0527ZM79.0186 5.66992V19H77.4062L77 17.2988C75.3835 18.4329 73.7585 19 72.125 19C69.0612 19 67.5293 17.3454 67.5293 14.0361V5.66992H69.8779V14.0742C69.8779 16.0547 70.8597 17.0449 72.8232 17.0449C74.1689 17.0449 75.4512 16.4821 76.6699 15.3564V5.66992H79.0186ZM82.8398 19V5.66992H84.4268L84.8457 7.37109C86.2083 6.23698 87.7064 5.66992 89.3398 5.66992C92.666 5.66992 94.3291 7.32454 94.3291 10.6338V19H91.9805V10.5957C91.9805 8.61523 90.9945 7.625 89.0225 7.625C87.6768 7.625 86.3988 8.18783 85.1885 9.31348V19H82.8398ZM100.753 5.66992V19H98.4043V5.66992H100.753ZM100.753 0.845703V3.06738H98.4043V0.845703H100.753ZM106.542 12.2842C106.542 15.4919 107.875 17.0957 110.541 17.0957C113.207 17.0957 114.54 15.4919 114.54 12.2842C114.54 9.14421 113.207 7.57422 110.541 7.57422C107.875 7.57422 106.542 9.14421 106.542 12.2842ZM104.193 12.335C104.193 7.8916 106.309 5.66992 110.541 5.66992C114.773 5.66992 116.889 7.8916 116.889 12.335C116.889 16.7699 114.773 18.9873 110.541 18.9873C106.326 18.9873 104.21 16.7699 104.193 12.335ZM120.062 19V5.66992H121.649L122.068 7.37109C123.431 6.23698 124.929 5.66992 126.562 5.66992C129.889 5.66992 131.552 7.32454 131.552 10.6338V19H129.203V10.5957C129.203 8.61523 128.217 7.625 126.245 7.625C124.899 7.625 123.621 8.18783 122.411 9.31348V19H120.062Z" fill="black"/>
</svg>
