<svg width="34" height="23" viewBox="0 0 34 23" fill="none" xmlns="http://www.w3.org/2000/svg">
<circle cx="17.3092" cy="5.56364" r="4.56364" stroke="#5A5A5A" stroke-width="2"/>
<circle cx="27.8185" cy="8.03641" r="3.32727" stroke="#5A5A5A" stroke-width="2"/>
<path d="M22.6369 18.3881C22.6369 16.0765 24.8267 13.9821 27.8187 13.9821C30.8107 13.9821 33.0005 16.0765 33.0005 18.3881C33.0005 18.9818 32.8645 19.2707 32.7384 19.426C32.6087 19.5858 32.3819 19.7364 31.9465 19.8457C31.5024 19.9571 30.9304 20.0035 30.2087 20.0152C29.7778 20.0222 29.3428 20.0171 28.8758 20.0118C28.543 20.0079 28.194 20.0039 27.8187 20.0039C27.4433 20.0039 27.0943 20.0079 26.7615 20.0118C26.2946 20.0171 25.8596 20.0222 25.4286 20.0152C24.707 20.0035 24.1349 19.9571 23.6909 19.8457C23.2555 19.7364 23.0287 19.5858 22.8989 19.426C22.7728 19.2707 22.6369 18.9818 22.6369 18.3881Z" stroke="#5A5A5A" stroke-width="2"/>
<circle cx="6.18176" cy="8.03641" r="3.32727" stroke="#5A5A5A" stroke-width="2"/>
<path d="M1.00013 18.3881C1.00013 16.0765 3.18993 13.9821 6.18195 13.9821C9.17397 13.9821 11.3638 16.0765 11.3638 18.3881C11.3638 18.9818 11.2278 19.2707 11.1017 19.426C10.9719 19.5858 10.7451 19.7364 10.3097 19.8457C9.86572 19.9571 9.29365 20.0035 8.572 20.0152C8.14104 20.0222 7.70606 20.0171 7.23912 20.0118C6.90633 20.0079 6.55731 20.0039 6.18195 20.0039C5.80659 20.0039 5.45757 20.0079 5.12478 20.0118C4.65785 20.0171 4.22286 20.0222 3.7919 20.0152C3.07025 20.0035 2.49818 19.9571 2.05416 19.8457C1.61877 19.7364 1.39196 19.5858 1.26219 19.426C1.1361 19.2707 1.00013 18.9818 1.00013 18.3881Z" stroke="#5A5A5A" stroke-width="2"/>
<path d="M9.65527 19.4333C9.65527 16.261 12.8837 13.364 17.3098 13.364C21.7359 13.364 24.9644 16.261 24.9644 19.4333C24.9644 20.2414 24.7672 20.6856 24.5296 20.9588C24.2808 21.245 23.8722 21.4769 23.2013 21.6342C22.5267 21.7923 21.6823 21.8533 20.6634 21.8687C20.0567 21.8779 19.4345 21.8712 18.7733 21.8642C18.3075 21.8592 17.8224 21.854 17.3098 21.854C16.7972 21.854 16.3121 21.8592 15.8464 21.8642C15.1851 21.8712 14.5629 21.8779 13.9562 21.8687C12.9373 21.8533 12.0929 21.7923 11.4184 21.6342C10.7475 21.4769 10.3389 21.245 10.09 20.9588C9.85246 20.6856 9.65527 20.2414 9.65527 19.4333Z" fill="white" stroke="#5A5A5A" stroke-width="2"/>
</svg>
